<?xml version="1.0" standalone="no"?>
<!DOCTYPE svg PUBLIC "-//W3C//DTD SVG 20010904//EN"
 "http://www.w3.org/TR/2001/REC-SVG-20010904/DTD/svg10.dtd">
<svg version="1.0" xmlns="http://www.w3.org/2000/svg"
 width="2000.000000pt" height="1276.000000pt" viewBox="0 0 2000.000000 1276.000000"
 preserveAspectRatio="xMidYMid meet">

<g transform="translate(0.000000,1276.000000) scale(0.100000,-0.100000)"
fill="#000000" stroke="none">
<path d="M8851 10589 c-142 -64 -339 -216 -548 -420 l-101 -100 -79 7 c-152
12 -328 -23 -478 -96 -114 -55 -214 -127 -298 -215 -43 -45 -61 -57 -71 -50
-7 6 -61 46 -120 90 -291 220 -567 340 -921 402 -143 25 -600 25 -769 0 -720
-108 -1257 -416 -1656 -952 -263 -353 -461 -804 -575 -1310 -14 -60 -25 -118
-25 -128 0 -10 -36 -52 -81 -95 -317 -301 -348 -699 -82 -1057 129 -173 334
-337 571 -457 259 -131 555 -199 933 -214 945 -37 1858 411 2455 1205 121 161
148 215 152 306 7 129 -54 232 -173 293 -97 50 -249 29 -328 -46 -16 -15 -79
-94 -141 -177 -383 -509 -900 -829 -1511 -937 -110 -19 -165 -23 -355 -22
-305 0 -520 35 -708 117 -171 74 -377 239 -431 345 -12 24 -20 46 -18 49 3 2
22 0 44 -6 26 -7 382 -11 1114 -11 l1075 0 75 51 c230 158 447 372 603 595 67
95 111 140 181 186 92 60 175 81 301 76 97 -4 109 -7 188 -46 215 -107 325
-339 271 -570 -18 -74 -42 -125 -99 -207 -24 -33 -46 -66 -50 -72 -6 -10 124
-13 636 -13 l643 0 -47 98 c-25 53 -57 135 -69 182 -60 226 -4 516 146 765 81
134 71 126 146 113 87 -14 297 -14 388 2 216 36 383 142 492 308 66 100 103
204 139 382 40 196 40 196 -84 295 -126 100 -168 149 -200 238 -66 182 -210
324 -433 429 l-83 39 6 72 c10 127 41 582 40 584 0 0 -30 -12 -65 -28z m171
-1085 c78 -70 44 -191 -59 -210 -131 -25 -190 160 -72 224 32 17 104 9 131
-14z"/>
<path d="M2530 4764 l0 -1196 573 5 c617 4 649 7 847 64 302 87 569 304 705
573 88 176 119 318 119 555 1 186 -12 268 -64 421 -142 419 -535 710 -1028
763 -62 7 -313 11 -627 11 l-525 0 0 -1196z m1205 964 c217 -46 375 -124 517
-257 190 -177 282 -408 282 -706 0 -144 -10 -212 -46 -325 -91 -286 -322 -508
-625 -601 -146 -46 -209 -51 -655 -56 l-428 -5 0 987 0 987 443 -5 c332 -4
459 -9 512 -19z"/>
<path d="M10390 4765 l0 -1197 573 5 c616 5 651 7 842 62 313 91 576 305 714
581 82 164 110 284 117 499 5 121 2 184 -10 257 -82 502 -425 846 -956 960
-88 20 -137 21 -687 25 l-593 4 0 -1196z m1108 975 c418 -45 726 -276 849
-635 66 -195 69 -467 6 -660 -93 -285 -315 -504 -608 -600 -158 -51 -219 -57
-677 -62 l-428 -5 0 986 0 986 380 0 c210 0 424 -5 478 -10z"/>
<path d="M5877 5369 c-38 -4 -101 -17 -140 -29 -314 -95 -539 -355 -597 -690
-17 -93 -14 -281 4 -377 67 -355 335 -618 705 -695 126 -26 354 -21 476 11
125 33 269 108 353 187 l72 66 -30 36 c-16 21 -45 55 -63 77 l-35 40 -43 -41
c-87 -79 -201 -141 -304 -164 -288 -65 -560 2 -736 181 -99 101 -179 275 -179
391 l0 38 749 0 749 0 5 28 c6 29 -7 208 -19 258 -63 278 -219 487 -449 600
-102 50 -173 70 -295 84 -95 11 -125 11 -223 -1z m218 -199 c149 -22 260 -77
363 -181 87 -87 162 -240 177 -362 l7 -57 -641 0 -641 0 0 27 c0 51 32 159 72
240 118 243 377 373 663 333z"/>
<path d="M13737 5369 c-323 -37 -604 -273 -703 -589 -60 -192 -59 -449 4 -630
93 -269 317 -477 592 -553 174 -49 416 -49 575 -2 156 46 265 107 359 200 53
54 54 50 -27 140 l-54 59 -57 -52 c-147 -134 -358 -195 -591 -171 -280 29
-503 198 -583 443 -12 39 -26 97 -29 129 l-6 57 758 0 758 0 -7 105 c-11 179
-38 291 -100 412 -129 258 -366 420 -661 453 -100 11 -129 11 -228 -1z m298
-214 c175 -46 317 -162 402 -328 27 -54 63 -184 63 -229 l0 -28 -640 0 -640 0
0 23 c0 44 39 176 70 239 72 144 190 253 334 305 120 44 285 51 411 18z"/>
<path d="M7030 5357 c0 -2 151 -404 335 -892 184 -489 335 -890 335 -892 0 -1
51 -3 113 -3 l112 0 285 740 c239 619 287 736 295 718 6 -12 134 -344 285
-738 l275 -715 112 -3 111 -3 26 68 c14 37 167 440 339 896 l314 827 -107 0
-107 0 -273 -727 c-303 -807 -299 -797 -307 -790 -2 3 -132 345 -287 759
l-283 753 -103 0 -103 0 -282 -740 c-154 -407 -284 -749 -288 -759 -4 -10 -10
-16 -13 -13 -3 3 -131 344 -284 759 l-278 753 -111 3 c-61 1 -111 1 -111 -1z"/>
<path d="M14908 5313 c10 -26 162 -429 337 -895 l320 -848 111 0 111 0 284
735 c156 404 286 735 289 735 3 0 132 -330 286 -733 l281 -732 113 0 113 0
318 840 c175 462 327 864 338 893 l20 52 -107 0 -107 0 -285 -760 c-157 -418
-288 -760 -291 -760 -3 0 -133 341 -290 758 l-284 757 -102 3 -101 3 -34 -88
c-19 -48 -149 -391 -289 -760 -139 -370 -257 -673 -260 -673 -3 0 -131 341
-285 758 l-280 757 -112 3 -112 3 18 -48z"/>
</g>
</svg>
